<svg width="100" height="100" viewBox="0 0 100 100" fill="none" xmlns="http://www.w3.org/2000/svg">
  <!-- Background Circle -->
  <circle cx="50" cy="50" r="48" fill="#1e293b" />
  
  <!-- Stylized Book Pages -->
  <path d="M50 30V75M50 30C40 25 20 25 20 40V75C20 60 40 60 50 65M50 30C60 25 80 25 80 40V75C80 60 60 60 50 65" 
        stroke="#2563eb" stroke-width="4" stroke-linecap="round" stroke-linejoin="round" fill="#f8fafc"/>
  
  <!-- Inner "Soul" Glow/Eye -->
  <circle cx="50" cy="48" r="8" fill="#3b82f6" opacity="0.6">
    <animate attributeName="r" values="7;9;7" dur="3s" repeatCount="indefinite" />
  </circle>
  <circle cx="50" cy="48" r="4" fill="#ffffff" />
  
  <!-- Decorative Lines -->
  <path d="M28 45H42M28 53H42M28 61H42" stroke="#cbd5e1" stroke-width="2" stroke-linecap="round"/>
  <path d="M58 45H72M58 53H72M58 61H72" stroke="#cbd5e1" stroke-width="2" stroke-linecap="round"/>
</svg>
